<svg width="243" height="54" viewBox="0 0 243 54" fill="none" xmlns="http://www.w3.org/2000/svg">
<path d="M43.168 39.8555C44.3074 39.8555 45.0424 40.0697 45.5947 40.3369C46.1875 40.6238 46.6661 41.0116 47.3389 41.5723C47.9948 42.1186 48.8952 42.1721 49.5977 41.7773C44.775 49.1372 36.4563 54 27 54C17.8483 54 9.76097 49.4461 4.87793 42.4814C5.29242 42.7801 5.76144 43.0778 6.29297 43.335C7.43033 43.8852 8.76723 44.2158 10.4619 44.2158C12.1145 44.2157 13.4335 43.8802 14.5635 43.3379C15.6507 42.8159 16.5009 42.1266 17.1621 41.5977C17.8633 41.0367 18.3774 40.6354 18.9932 40.3398C19.5664 40.0648 20.2922 39.8555 21.3643 39.8555C22.5035 39.8556 23.2388 40.0697 23.791 40.3369C24.3837 40.6238 24.8616 41.0118 25.5342 41.5723C26.1695 42.1017 27 42.8043 28.0967 43.335C29.234 43.8852 30.571 44.2158 32.2656 44.2158C33.9184 44.2158 35.2381 43.8803 36.3682 43.3379C37.4554 42.8159 38.3056 42.1266 38.9668 41.5977C39.6679 41.0368 40.1811 40.6354 40.7969 40.3398C41.3701 40.0648 42.0957 39.8555 43.168 39.8555ZM43.168 13.6904C44.3073 13.6905 45.0424 13.9046 45.5947 14.1719C46.1875 14.4588 46.6661 14.8466 47.3389 15.4072C48.1874 16.1141 49.4482 15.9997 50.1553 15.1514C50.4586 14.7872 50.6085 14.347 50.6162 13.9072C52.7709 17.7854 54 22.2489 54 27C54 31.7516 52.7703 36.2153 50.6152 40.0938C50.632 39.5016 50.3896 38.9076 49.8994 38.499C49.2641 37.9696 48.4336 37.267 47.3369 36.7363C46.1996 36.186 44.8626 35.8555 43.168 35.8555C41.5154 35.8555 40.1963 36.1912 39.0664 36.7334C37.9793 37.2552 37.129 37.9446 36.4678 38.4736C35.7665 39.0346 35.2524 39.4358 34.6367 39.7314C34.0635 40.0066 33.3379 40.2158 32.2656 40.2158C31.1263 40.2158 30.3912 40.0016 29.8389 39.7344C29.2461 39.4475 28.7684 39.0596 28.0957 38.499C27.4604 37.9696 26.6298 37.2671 25.5332 36.7363C24.396 36.1861 23.0587 35.8556 21.3643 35.8555C19.7115 35.8555 18.3917 36.1911 17.2617 36.7334C16.1744 37.2553 15.3244 37.9446 14.6631 38.4736C13.9619 39.0346 13.4486 39.4358 12.833 39.7314C12.2598 40.0066 11.5341 40.2157 10.4619 40.2158C9.32243 40.2158 8.58751 40.0016 8.03516 39.7344C7.44226 39.4475 6.96385 39.0597 6.29102 38.499C5.44259 37.7922 4.18174 37.9077 3.47461 38.7559C3.28084 38.9884 3.1503 39.2527 3.07812 39.5273C1.11332 35.7831 0 31.5218 0 27C0 22.4657 1.11882 18.1931 3.09375 14.4414C3.20203 14.8067 3.41575 15.145 3.73047 15.4072C4.36581 15.9367 5.19616 16.6392 6.29297 17.1699C7.43034 17.7202 8.76721 18.0508 10.4619 18.0508C12.1145 18.0507 13.4335 17.7152 14.5635 17.1729C15.6507 16.6509 16.5009 15.9616 17.1621 15.4326C17.8633 14.8717 18.3774 14.4704 18.9932 14.1748C19.5664 13.8998 20.2923 13.6904 21.3643 13.6904C22.5035 13.6905 23.2388 13.9047 23.791 14.1719C24.3837 14.4587 24.8616 14.8467 25.5342 15.4072C26.1695 15.9366 27 16.6392 28.0967 17.1699C29.234 17.7202 30.571 18.0507 32.2656 18.0508C33.9184 18.0507 35.2381 17.7153 36.3682 17.1729C37.4554 16.6509 38.3056 15.9616 38.9668 15.4326C39.6679 14.8718 40.1812 14.4704 40.7969 14.1748C41.3701 13.8997 42.0958 13.6904 43.168 13.6904ZM43.168 22.7725C41.5154 22.7725 40.1964 23.1091 39.0664 23.6514C37.9792 24.1732 37.129 24.8626 36.4678 25.3916C35.7665 25.9526 35.2524 26.3538 34.6367 26.6494C34.0635 26.9245 33.3377 27.1337 32.2656 27.1338C31.1263 27.1338 30.3912 26.9196 29.8389 26.6523C29.2461 26.3655 28.7683 25.9775 28.0957 25.417C27.4605 24.8876 26.6298 24.185 25.5332 23.6543C24.396 23.104 23.0587 22.7726 21.3643 22.7725C19.7115 22.7725 18.3917 23.109 17.2617 23.6514C16.1745 24.1733 15.3243 24.8626 14.6631 25.3916C13.962 25.9525 13.4486 26.3538 12.833 26.6494C12.2598 26.9246 11.5341 27.1337 10.4619 27.1338C9.32255 27.1338 8.58749 26.9195 8.03516 26.6523C7.44226 26.3655 6.96385 25.9777 6.29102 25.417C5.44266 24.71 4.18183 24.8248 3.47461 25.6729C2.76748 26.5214 2.88191 27.7831 3.73047 28.4902C4.36577 29.0197 5.19631 29.7223 6.29297 30.2529C7.43029 30.8032 8.76731 31.1338 10.4619 31.1338C12.1144 31.1337 13.4336 30.7981 14.5635 30.2559C15.6508 29.7339 16.5009 29.0436 17.1621 28.5146C17.8632 27.9537 18.3774 27.5534 18.9932 27.2578C19.5664 26.9828 20.2921 26.7725 21.3643 26.7725C22.5035 26.7726 23.2388 26.9877 23.791 27.2549C24.3836 27.5417 24.8616 27.9297 25.5342 28.4902C26.1695 29.0197 26.9999 29.7222 28.0967 30.2529C29.234 30.8032 30.571 31.1338 32.2656 31.1338C33.9184 31.1337 35.2381 30.7983 36.3682 30.2559C37.4555 29.7339 38.3056 29.0436 38.9668 28.5146C39.6677 27.9539 40.1813 27.5533 40.7969 27.2578C41.3701 26.9827 42.0957 26.7725 43.168 26.7725C44.3074 26.7725 45.0424 26.9876 45.5947 27.2549C46.1875 27.5418 46.6661 27.9296 47.3389 28.4902C48.1874 29.1969 49.4483 29.0818 50.1553 28.2334C50.8619 27.3849 50.7476 26.124 49.8994 25.417C49.2641 24.8876 48.4336 24.185 47.3369 23.6543C46.1996 23.104 44.8626 22.7725 43.168 22.7725ZM27 0C36.3282 0 44.551 4.73088 49.4014 11.9238C48.8453 11.4745 48.1677 10.9733 47.3369 10.5713C46.1996 10.021 44.8625 9.69049 43.168 9.69043C41.5155 9.69043 40.1963 10.0262 39.0664 10.5684C37.9791 11.0903 37.1291 11.7805 36.4678 12.3096C35.7666 12.8705 35.2524 13.2708 34.6367 13.5664C34.0635 13.8415 33.3379 14.0507 32.2656 14.0508C31.1263 14.0507 30.3912 13.8365 29.8389 13.5693C29.2461 13.2825 28.7684 12.8945 28.0957 12.334C27.4604 11.8046 26.6299 11.102 25.5332 10.5713C24.396 10.021 23.0587 9.69054 21.3643 9.69043C19.7115 9.69043 18.3917 10.026 17.2617 10.5684C16.1744 11.0903 15.3244 11.7805 14.6631 12.3096C13.9622 12.8703 13.4485 13.2709 12.833 13.5664C12.2598 13.8415 11.5341 14.0507 10.4619 14.0508C9.3224 14.0508 8.58752 13.8366 8.03516 13.5693C7.44226 13.2825 6.96385 12.8947 6.29102 12.334C5.80385 11.9282 5.18062 11.7948 4.60449 11.9141C9.45572 4.72641 17.6759 0 27 0Z" fill="#9112BC"/>
<path d="M104.5 8.1V43H97.5V20.3L88.15 43H82.85L73.45 20.3V43H66.45V8.1H74.4L85.5 34.05L96.6 8.1H104.5ZM123.721 43.45C121.054 43.45 118.654 42.8667 116.521 41.7C114.387 40.5 112.704 38.8167 111.471 36.65C110.271 34.4833 109.671 31.9833 109.671 29.15C109.671 26.3167 110.287 23.8167 111.521 21.65C112.787 19.4833 114.504 17.8167 116.671 16.65C118.837 15.45 121.254 14.85 123.921 14.85C126.587 14.85 129.004 15.45 131.171 16.65C133.337 17.8167 135.037 19.4833 136.271 21.65C137.537 23.8167 138.171 26.3167 138.171 29.15C138.171 31.9833 137.521 34.4833 136.221 36.65C134.954 38.8167 133.221 40.5 131.021 41.7C128.854 42.8667 126.421 43.45 123.721 43.45ZM123.721 37.35C124.987 37.35 126.171 37.05 127.271 36.45C128.404 35.8167 129.304 34.8833 129.971 33.65C130.637 32.4167 130.971 30.9167 130.971 29.15C130.971 26.5167 130.271 24.5 128.871 23.1C127.504 21.6667 125.821 20.95 123.821 20.95C121.821 20.95 120.137 21.6667 118.771 23.1C117.437 24.5 116.771 26.5167 116.771 29.15C116.771 31.7833 117.421 33.8167 118.721 35.25C120.054 36.65 121.721 37.35 123.721 37.35ZM150.305 19.35C151.205 18.0167 152.439 16.9333 154.005 16.1C155.605 15.2667 157.422 14.85 159.455 14.85C161.822 14.85 163.955 15.4333 165.855 16.6C167.789 17.7667 169.305 19.4333 170.405 21.6C171.539 23.7333 172.105 26.2167 172.105 29.05C172.105 31.8833 171.539 34.4 170.405 36.6C169.305 38.7667 167.789 40.45 165.855 41.65C163.955 42.85 161.822 43.45 159.455 43.45C157.389 43.45 155.572 43.05 154.005 42.25C152.472 41.4167 151.239 40.35 150.305 39.05V43H143.305V6H150.305V19.35ZM164.955 29.05C164.955 27.3833 164.605 25.95 163.905 24.75C163.239 23.5167 162.339 22.5833 161.205 21.95C160.105 21.3167 158.905 21 157.605 21C156.339 21 155.139 21.3333 154.005 22C152.905 22.6333 152.005 23.5667 151.305 24.8C150.639 26.0333 150.305 27.4833 150.305 29.15C150.305 30.8167 150.639 32.2667 151.305 33.5C152.005 34.7333 152.905 35.6833 154.005 36.35C155.139 36.9833 156.339 37.3 157.605 37.3C158.905 37.3 160.105 36.9667 161.205 36.3C162.339 35.6333 163.239 34.6833 163.905 33.45C164.605 32.2167 164.955 30.75 164.955 29.05ZM180.742 12C179.509 12 178.476 11.6167 177.642 10.85C176.842 10.05 176.442 9.06666 176.442 7.9C176.442 6.73333 176.842 5.76666 177.642 5C178.476 4.2 179.509 3.8 180.742 3.8C181.976 3.8 182.992 4.2 183.792 5C184.626 5.76666 185.042 6.73333 185.042 7.9C185.042 9.06666 184.626 10.05 183.792 10.85C182.992 11.6167 181.976 12 180.742 12ZM184.192 15.3V43H177.192V15.3H184.192ZM198.108 6V43H191.108V6H198.108ZM208.574 12C207.341 12 206.308 11.6167 205.474 10.85C204.674 10.05 204.274 9.06666 204.274 7.9C204.274 6.73333 204.674 5.76666 205.474 5C206.308 4.2 207.341 3.8 208.574 3.8C209.808 3.8 210.824 4.2 211.624 5C212.458 5.76666 212.874 6.73333 212.874 7.9C212.874 9.06666 212.458 10.05 211.624 10.85C210.824 11.6167 209.808 12 208.574 12ZM212.024 15.3V43H205.024V15.3H212.024ZM234.24 43L228.54 34.4L223.49 43H215.99L225.04 29.1L215.89 15.3H223.79L229.44 23.85L234.54 15.3H242.04L232.94 29.1L242.14 43H234.24Z" fill="#9112BC"/>
</svg>
